# xmcd CD database file
#
# Track frame offsets:
#	150
#	13795
#	25822
#	36870
#	46950
#	58452
#	66295
#	81542
#	92707
#	108062
#	118990
#	127220
#
# Disc length: 1834 seconds
#
# Revision: 0
# Processed by: cddbd v1.4b41PL2 Copyright (c) Steve Scherf et al.
# Submitted via: Feurio! 1.61 - http://www.feurio.com
#
DISCID=ae07280c
DTITLE=Various Artist - 24 Country Classics [CD 1)
DYEAR=1900
DGENRE=
TTITLE0=Lynn Anderson - Rose Garden-
TTITLE1=Wylon Jennings - Crying-
TTITLE2=Dolly Parton - Honky Tonk Angels-
TTITLE3=Ned Miller - From A Jack To A King-
TTITLE4=Kitty Wells - Making Believe-
TTITLE5=Johnny Cash - Hey Good Lockin'-
TTITLE6=Barbara Mandrell - Slippin' Away-
TTITLE7=Hank Locklin - Send Me The Pillow That You Dream On-
TTITLE8=Kenny Rogers - For The Good Times-
TTITLE9=Billy Jo Spears - I'm So Lonesome I Could Cry-
TTITLE10=Roger Miller - Dear Heart-
TTITLE11=Dave Dudley - Six Days On The Road-
EXTD=Rams Horn-1993 -(RHR 01-2113 PC 01)
EXTT0=
EXTT1=
EXTT2=
EXTT3=
EXTT4=
EXTT5=
EXTT6=
EXTT7=
EXTT8=
EXTT9=
EXTT10=
EXTT11=
PLAYORDER=
